<?xml version="1.0" encoding="ISO-8859-1" standalone="no"?>
<!DOCTYPE svg PUBLIC "-//W3C//DTD SVG 1.1//EN" "http://www.w3.org/Graphics/SVG/1.1/DTD/svg11.dtd">
<svg version="1.1" baseProfile="full" id="body" width="8in" height="8in" viewBox="0 0 1 1" preserveAspectRatio="none" xmlns="http://www.w3.org/2000/svg" xmlns:xlink="http://www.w3.org/1999/xlink" xmlns:ev="http://www.w3.org/2001/xml-events">
<title>SVG drawing</title>
<desc>This was produced by version 4.4 of GNU libplot, a free library for exporting 2-D vector graphics.</desc>
<rect id="background" x="0" y="0" width="1" height="1" stroke="none" fill="white"/>
<g id="content" transform="translate(0.10938,0.25938) scale(1,-1) scale(0.125) " xml:space="preserve" stroke="black" stroke-linecap="butt" stroke-linejoin="miter" stroke-miterlimit="10.433" stroke-dasharray="none" stroke-dashoffset="0" stroke-opacity="1" fill="none" fill-rule="evenodd" fill-opacity="1" font-style="normal" font-variant="normal" font-weight="normal" font-stretch="normal" font-size-adjust="none" letter-spacing="normal" word-spacing="normal" text-anchor="start">
<rect x="0" y="-0.15" width="0.75" height="0.3" stroke-width="0.0094118" />
<text transform="translate(0.085625,-0.049028) scale(1,-1) scale(0.0069444) " font-family="Helvetica,sans-serif" font-size="20px" stroke="none" fill="black" >m:Master</text>
<line x1="0.1" y1="-0.07" x2="0.65" y2="-0.07" stroke-width="0.0094118" />
<rect x="1.25" y="-0.15" width="0.75" height="0.3" stroke-width="0.0094118" />
<text transform="translate(1.243,-0.049028) scale(1,-1) scale(0.0069444) " font-family="Helvetica,sans-serif" font-size="20px" stroke="none" fill="black" >c:CareTaker</text>
<line x1="1.35" y1="-0.07" x2="1.9" y2="-0.07" stroke-width="0.0094118" />
<rect x="2.5" y="-0.15" width="0.75" height="0.3" stroke-width="0.0094118" />
<text transform="translate(2.493,-0.049028) scale(1,-1) scale(0.0069444) " font-family="Helvetica,sans-serif" font-size="20px" stroke="none" fill="black" >f:FileSystem</text>
<line x1="2.6" y1="-0.07" x2="3.15" y2="-0.07" stroke-width="0.0094118" />
<rect x="3.75" y="-0.15" width="0.75" height="0.3" stroke-width="0.0094118" />
<text transform="translate(3.8973,-0.049028) scale(1,-1) scale(0.0069444) " font-family="Helvetica,sans-serif" font-size="20px" stroke="none" fill="black" >b:Block</text>
<line x1="3.85" y1="-0.07" x2="4.4" y2="-0.07" stroke-width="0.0094118" />
<rect x="5" y="-0.15" width="0.75" height="0.3" stroke-width="0.0094118" />
<text transform="translate(5.0276,-0.049028) scale(1,-1) scale(0.0069444) " font-family="Helvetica,sans-serif" font-size="20px" stroke="none" fill="black" >o:OsKernel</text>
<line x1="5.1" y1="-0.07" x2="5.65" y2="-0.07" stroke-width="0.0094118" />
<line x1="4.125" y1="-0.15" x2="4.125" y2="-0.25" stroke-width="0.0094118" stroke-dasharray="0.05, 0.05" />
<line x1="4.075" y1="-0.25" x2="4.175" y2="-0.25" stroke-width="0.0094118" />
<line x1="4.065" y1="-0.75" x2="2.935" y2="-0.75" stroke-width="0.0094118" />
<polygon points="3.035,-0.775 2.935,-0.75 3.035,-0.725 " stroke-width="0.0094118" fill="black" />
<text transform="translate(2.8015,-0.71569) scale(1,-1) scale(0.0069444) " font-family="Helvetica,sans-serif" font-size="20px" stroke="none" fill="black" >write_status(json data)</text>
<text transform="translate(3.4807,-0.88236) scale(1,-1) scale(0.0069444) " font-family="Helvetica,sans-serif" font-size="20px" stroke="none" fill="black" > </text>
<line x1="4.075" y1="-0.25" x2="4.075" y2="-0.75" stroke-width="0.0094118" />
<line x1="4.175" y1="-0.25" x2="4.175" y2="-0.75" stroke-width="0.0094118" />
<line x1="4.075" y1="-0.75" x2="4.175" y2="-0.75" stroke-width="0.0094118" />
<line x1="0.435" y1="-1.5" x2="1.565" y2="-1.5" stroke-width="0.0094118" />
<polygon points="1.465,-1.475 1.565,-1.5 1.465,-1.525 " stroke-width="0.0094118" fill="black" />
<text transform="translate(0.82243,-1.4657) scale(1,-1) scale(0.0069444) " font-family="Helvetica,sans-serif" font-size="20px" stroke="none" fill="black" >POLL</text>
<text transform="translate(0.98069,-1.6324) scale(1,-1) scale(0.0069444) " font-family="Helvetica,sans-serif" font-size="20px" stroke="none" fill="black" > </text>
<line x1="1.625" y1="-0.15" x2="1.625" y2="-1.5" stroke-width="0.0094118" stroke-dasharray="0.05, 0.05" />
<line x1="1.575" y1="-1.5" x2="1.675" y2="-1.5" stroke-width="0.0094118" />
<line x1="1.685" y1="-1.75" x2="2.815" y2="-1.75" stroke-width="0.0094118" />
<polygon points="2.715,-1.725 2.815,-1.75 2.715,-1.775 " stroke-width="0.0094118" fill="black" />
<text transform="translate(1.8409,-1.7157) scale(1,-1) scale(0.0069444) " font-family="Helvetica,sans-serif" font-size="20px" stroke="none" fill="black" >read_status()</text>
<text transform="translate(2.2307,-1.8824) scale(1,-1) scale(0.0069444) " font-family="Helvetica,sans-serif" font-size="20px" stroke="none" fill="black" > </text>
<line x1="2.815" y1="-2" x2="1.685" y2="-2" stroke-width="0.0094118" stroke-dasharray="0.05, 0.05" />
<polygon points="1.785,-2.025 1.685,-2 1.785,-1.975 " stroke-width="0.0094118" fill="black" />
<text transform="translate(1.9682,-1.9657) scale(1,-1) scale(0.0069444) " font-family="Helvetica,sans-serif" font-size="20px" stroke="none" fill="black" >json data</text>
<text transform="translate(2.2307,-2.1324) scale(1,-1) scale(0.0069444) " font-family="Helvetica,sans-serif" font-size="20px" stroke="none" fill="black" > </text>
<line x1="1.685" y1="-2.25" x2="5.315" y2="-2.25" stroke-width="0.0094118" />
<polygon points="5.215,-2.225 5.315,-2.25 5.215,-2.275 " stroke-width="0.0094118" fill="black" />
<text transform="translate(3.1931,-2.2157) scale(1,-1) scale(0.0069444) " font-family="Helvetica,sans-serif" font-size="20px" stroke="none" fill="black" >ps -p PID</text>
<text transform="translate(3.4807,-2.3824) scale(1,-1) scale(0.0069444) " font-family="Helvetica,sans-serif" font-size="20px" stroke="none" fill="black" > </text>
<line x1="5.315" y1="-2.5" x2="1.685" y2="-2.5" stroke-width="0.0094118" stroke-dasharray="0.05, 0.05" />
<polygon points="1.785,-2.525 1.685,-2.5 1.785,-2.475 " stroke-width="0.0094118" fill="black" />
<text transform="translate(3.0523,-2.4657) scale(1,-1) scale(0.0069444) " font-family="Helvetica,sans-serif" font-size="20px" stroke="none" fill="black" >process status</text>
<text transform="translate(3.4807,-2.6324) scale(1,-1) scale(0.0069444) " font-family="Helvetica,sans-serif" font-size="20px" stroke="none" fill="black" > </text>
<line x1="1.565" y1="-3" x2="0.435" y2="-3" stroke-width="0.0094118" stroke-dasharray="0.05, 0.05" />
<polygon points="0.535,-3.025 0.435,-3 0.535,-2.975 " stroke-width="0.0094118" fill="black" />
<text transform="translate(0.27062,-2.9657) scale(1,-1) scale(0.0069444) " font-family="Helvetica,sans-serif" font-size="20px" stroke="none" fill="black" >(host,loads,stats,errors)</text>
<text transform="translate(0.98069,-3.1324) scale(1,-1) scale(0.0069444) " font-family="Helvetica,sans-serif" font-size="20px" stroke="none" fill="black" > </text>
<line x1="1.575" y1="-1.5" x2="1.575" y2="-3" stroke-width="0.0094118" />
<line x1="1.675" y1="-1.5" x2="1.675" y2="-3" stroke-width="0.0094118" />
<line x1="1.575" y1="-3" x2="1.675" y2="-3" stroke-width="0.0094118" />
<line x1="4.125" y1="-0.75" x2="4.125" y2="-3.25" stroke-width="0.0094118" stroke-dasharray="0.05, 0.05" />
<line x1="4.075" y1="-3.25" x2="4.175" y2="-3.25" stroke-width="0.0094118" />
<line x1="4.065" y1="-3.75" x2="2.935" y2="-3.75" stroke-width="0.0094118" />
<polygon points="3.035,-3.775 2.935,-3.75 3.035,-3.725 " stroke-width="0.0094118" fill="black" />
<text transform="translate(2.8015,-3.7157) scale(1,-1) scale(0.0069444) " font-family="Helvetica,sans-serif" font-size="20px" stroke="none" fill="black" >write_status(json data)</text>
<text transform="translate(3.4807,-3.8824) scale(1,-1) scale(0.0069444) " font-family="Helvetica,sans-serif" font-size="20px" stroke="none" fill="black" > </text>
<line x1="4.075" y1="-3.25" x2="4.075" y2="-3.75" stroke-width="0.0094118" />
<line x1="4.175" y1="-3.25" x2="4.175" y2="-3.75" stroke-width="0.0094118" />
<line x1="4.075" y1="-3.75" x2="4.175" y2="-3.75" stroke-width="0.0094118" />
<line x1="1.625" y1="-3" x2="1.625" y2="-4" stroke-width="0.0094118" stroke-dasharray="0.05, 0.05" />
<line x1="4.125" y1="-3.75" x2="4.125" y2="-4" stroke-width="0.0094118" stroke-dasharray="0.05, 0.05" />
<line x1="2.875" y1="-0.15" x2="2.875" y2="-4" stroke-width="0.0094118" stroke-dasharray="0.05, 0.05" />
<line x1="5.375" y1="-0.15" x2="5.375" y2="-4" stroke-width="0.0094118" stroke-dasharray="0.05, 0.05" />
<line x1="0.375" y1="-0.15" x2="0.375" y2="-4" stroke-width="0.0094118" stroke-dasharray="0.05, 0.05" />
</g>
</svg>
