<?xml version="1.0" encoding="ISO-8859-1" standalone="no"?>
<!DOCTYPE svg PUBLIC "-//W3C//DTD SVG 1.1//EN" "http://www.w3.org/Graphics/SVG/1.1/DTD/svg11.dtd">
<svg version="1.1" baseProfile="full" id="body" width="8in" height="8in" viewBox="0 0 1 1" preserveAspectRatio="none" xmlns="http://www.w3.org/2000/svg" xmlns:xlink="http://www.w3.org/1999/xlink" xmlns:ev="http://www.w3.org/2001/xml-events">
<title>SVG drawing</title>
<desc>This was produced by version 4.4 of GNU libplot, a free library for exporting 2-D vector graphics.</desc>
<rect id="background" x="0" y="0" width="1" height="1" stroke="none" fill="white"/>
<g id="content" transform="translate(0.1875,0.32188) scale(1,-1) scale(0.125) " xml:space="preserve" stroke="black" stroke-linecap="butt" stroke-linejoin="miter" stroke-miterlimit="10.433" stroke-dasharray="none" stroke-dashoffset="0" stroke-opacity="1" fill="none" fill-rule="evenodd" fill-opacity="1" font-style="normal" font-variant="normal" font-weight="normal" font-stretch="normal" font-size-adjust="none" letter-spacing="normal" word-spacing="normal" text-anchor="start">
<rect x="0" y="-0.15" width="0.75" height="0.3" stroke-width="0.0094118" />
<text transform="translate(0.085625,-0.049028) scale(1,-1) scale(0.0069444) " font-family="Helvetica,sans-serif" font-size="20px" stroke="none" fill="black" >m:Master</text>
<line x1="0.1" y1="-0.07" x2="0.65" y2="-0.07" stroke-width="0.0094118" />
<rect x="1.25" y="-0.15" width="0.75" height="0.3" stroke-width="0.0094118" />
<text transform="translate(1.243,-0.049028) scale(1,-1) scale(0.0069444) " font-family="Helvetica,sans-serif" font-size="20px" stroke="none" fill="black" >c:CareTaker</text>
<line x1="1.35" y1="-0.07" x2="1.9" y2="-0.07" stroke-width="0.0094118" />
<rect x="2.5" y="-0.15" width="0.75" height="0.3" stroke-width="0.0094118" />
<text transform="translate(2.6087,-0.049028) scale(1,-1) scale(0.0069444) " font-family="Helvetica,sans-serif" font-size="20px" stroke="none" fill="black" >b1:Block</text>
<line x1="2.6" y1="-0.07" x2="3.15" y2="-0.07" stroke-width="0.0094118" />
<rect x="3.75" y="-0.15" width="0.75" height="0.3" stroke-width="0.0094118" />
<text transform="translate(3.8587,-0.049028) scale(1,-1) scale(0.0069444) " font-family="Helvetica,sans-serif" font-size="20px" stroke="none" fill="black" >b2:Block</text>
<line x1="3.85" y1="-0.07" x2="4.4" y2="-0.07" stroke-width="0.0094118" />
<line x1="0.375" y1="-0.15" x2="0.375" y2="-0.25" stroke-width="0.0094118" stroke-dasharray="0.05, 0.05" />
<line x1="0.325" y1="-0.25" x2="0.425" y2="-0.25" stroke-width="0.0094118" />
<line x1="0.435" y1="-0.5" x2="1.565" y2="-0.5" stroke-width="0.0094118" />
<polygon points="1.465,-0.475 1.565,-0.5 1.465,-0.525 " stroke-width="0.0094118" fill="black" />
<text transform="translate(0.66806,-0.46569) scale(1,-1) scale(0.0069444) " font-family="Helvetica,sans-serif" font-size="20px" stroke="none" fill="black" >STOP ALL</text>
<text transform="translate(0.98069,-0.63236) scale(1,-1) scale(0.0069444) " font-family="Helvetica,sans-serif" font-size="20px" stroke="none" fill="black" > </text>
<line x1="1.625" y1="-0.15" x2="1.625" y2="-0.5" stroke-width="0.0094118" stroke-dasharray="0.05, 0.05" />
<line x1="1.575" y1="-0.5" x2="1.675" y2="-0.5" stroke-width="0.0094118" />
<line x1="1.685" y1="-1" x2="2.815" y2="-1" stroke-width="0.0094118" />
<polygon points="2.715,-0.975 2.815,-1 2.715,-1.025 " stroke-width="0.0094118" fill="black" />
<text transform="translate(1.9336,-0.96569) scale(1,-1) scale(0.0069444) " font-family="Helvetica,sans-serif" font-size="20px" stroke="none" fill="black" >SIGTERM</text>
<text transform="translate(2.2307,-1.1324) scale(1,-1) scale(0.0069444) " font-family="Helvetica,sans-serif" font-size="20px" stroke="none" fill="black" > </text>
<line x1="1.685" y1="-1.25" x2="4.065" y2="-1.25" stroke-width="0.0094118" />
<polygon points="3.965,-1.225 4.065,-1.25 3.965,-1.275 " stroke-width="0.0094118" fill="black" />
<text transform="translate(2.5586,-1.2157) scale(1,-1) scale(0.0069444) " font-family="Helvetica,sans-serif" font-size="20px" stroke="none" fill="black" >SIGTERM</text>
<text transform="translate(2.8557,-1.3824) scale(1,-1) scale(0.0069444) " font-family="Helvetica,sans-serif" font-size="20px" stroke="none" fill="black" > </text>
<line x1="2.875" y1="-0.15" x2="2.875" y2="-1.5" stroke-width="0.0094118" stroke-dasharray="0.05, 0.05" />
<line x1="1.685" y1="-2" x2="4.065" y2="-2" stroke-width="0.0094118" />
<polygon points="3.965,-1.975 4.065,-2 3.965,-2.025 " stroke-width="0.0094118" fill="black" />
<text transform="translate(2.5586,-1.9657) scale(1,-1) scale(0.0069444) " font-family="Helvetica,sans-serif" font-size="20px" stroke="none" fill="black" >SIGTERM</text>
<text transform="translate(2.8557,-2.1324) scale(1,-1) scale(0.0069444) " font-family="Helvetica,sans-serif" font-size="20px" stroke="none" fill="black" > </text>
<line x1="1.685" y1="-2.5" x2="4.065" y2="-2.5" stroke-width="0.0094118" />
<polygon points="3.965,-2.475 4.065,-2.5 3.965,-2.525 " stroke-width="0.0094118" fill="black" />
<text transform="translate(2.6125,-2.4657) scale(1,-1) scale(0.0069444) " font-family="Helvetica,sans-serif" font-size="20px" stroke="none" fill="black" >SIGKILL</text>
<text transform="translate(2.8557,-2.6324) scale(1,-1) scale(0.0069444) " font-family="Helvetica,sans-serif" font-size="20px" stroke="none" fill="black" > </text>
<line x1="4.125" y1="-0.15" x2="4.125" y2="-2.5" stroke-width="0.0094118" stroke-dasharray="0.05, 0.05" />
<line x1="1.565" y1="-2.75" x2="0.435" y2="-2.75" stroke-width="0.0094118" stroke-dasharray="0.05, 0.05" />
<polygon points="0.535,-2.775 0.435,-2.75 0.535,-2.725 " stroke-width="0.0094118" fill="black" />
<text transform="translate(0.85722,-2.7157) scale(1,-1) scale(0.0069444) " font-family="Helvetica,sans-serif" font-size="20px" stroke="none" fill="black" >True</text>
<text transform="translate(0.98069,-2.8824) scale(1,-1) scale(0.0069444) " font-family="Helvetica,sans-serif" font-size="20px" stroke="none" fill="black" > </text>
<line x1="1.575" y1="-0.5" x2="1.575" y2="-2.75" stroke-width="0.0094118" />
<line x1="1.675" y1="-0.5" x2="1.675" y2="-2.75" stroke-width="0.0094118" />
<line x1="1.575" y1="-2.75" x2="1.675" y2="-2.75" stroke-width="0.0094118" />
<line x1="1.625" y1="-2.75" x2="1.625" y2="-2.75" stroke-width="0.0094118" stroke-dasharray="0.05, 0.05" />
<line x1="0.325" y1="-0.25" x2="0.325" y2="-3" stroke-width="0.0094118" />
<line x1="0.425" y1="-0.25" x2="0.425" y2="-3" stroke-width="0.0094118" />
<line x1="0.325" y1="-3" x2="0.425" y2="-3" stroke-width="0.0094118" />
<line x1="0.375" y1="-3" x2="0.375" y2="-3" stroke-width="0.0094118" stroke-dasharray="0.05, 0.05" />
</g>
</svg>
